<svg id="Referral_CaseDetails_NotSelected" xmlns="http://www.w3.org/2000/svg" viewBox="0 0 18.04 21.65"><defs><style>.cls-1{fill:#929497;}</style></defs><title>notifications</title><path class="cls-1" d="M18,18.26l-1.55-2.58a7.63,7.63,0,0,1-1.09-3.95V9.47a6.32,6.32,0,0,0-12.63,0v2.26a7.64,7.64,0,0,1-1.1,3.95L.06,18.26a.47.47,0,0,0,0,.46.44.44,0,0,0,.39.22H17.59a.47.47,0,0,0,.4-.22A.5.5,0,0,0,18,18.26ZM1.25,18l1.14-1.9a8.54,8.54,0,0,0,1.22-4.41V9.47a5.41,5.41,0,0,1,10.82,0v2.26a8.55,8.55,0,0,0,1.23,4.41L16.8,18Z"/><path class="cls-1" d="M9,0a1.81,1.81,0,0,0-1.8,1.8V3.61a.45.45,0,0,0,.9,0V1.8a.9.9,0,1,1,1.8,0V3.61a.46.46,0,0,0,.91,0V1.8A1.81,1.81,0,0,0,9,0Z"/><path class="cls-1" d="M11,18.27a.45.45,0,0,0-.61-.17.46.46,0,0,0-.17.62,1.34,1.34,0,0,1,.19.68,1.36,1.36,0,0,1-2.71,0,1.33,1.33,0,0,1,.18-.68.45.45,0,1,0-.78-.45,2.22,2.22,0,0,0-.3,1.13A2.26,2.26,0,1,0,11,18.27Z"/></svg>