<svg id="Layer_1" data-name="Layer 1" xmlns="http://www.w3.org/2000/svg" viewBox="0 0 14.18 14.47"><defs><style>.cls-1{fill:#fff;}</style></defs><title>Import_user</title><path class="cls-1" d="M13.57,5.55H9.25V6.78H13v6.46H1.23V6.78h3.7V5.55H.61A.61.61,0,0,0,0,6.17v7.69a.61.61,0,0,0,.61.61h13a.61.61,0,0,0,.61-.61V6.17A.61.61,0,0,0,13.57,5.55Z"/><path class="cls-1" d="M4.31,8.33h0a.61.61,0,0,0-.42,1.05l2.77,2.71a.6.6,0,0,0,.43.18h0a.64.64,0,0,0,.43-.18l2.76-2.71a.62.62,0,0,0,0-.87h0a.65.65,0,0,0-.44-.18h0a.61.61,0,0,0-.43.17L7.7,10.2V.61A.61.61,0,0,0,7.09,0a.58.58,0,0,0-.43.18.6.6,0,0,0-.18.43V10.2L4.74,8.5A.6.6,0,0,0,4.31,8.33Z"/></svg>