<svg id="Referral_CaseDetails_NotSelected" xmlns="http://www.w3.org/2000/svg" viewBox="0 0 15.52 18.74"><defs><style>.cls-1{fill:#697685;}</style></defs><title>ism_upload_csv</title><path class="cls-1" d="M7.87,0a.7.7,0,0,0-.69.72V12.06a.7.7,0,1,0,1.39,0V.72A.71.71,0,0,0,7.87,0Z"/><path class="cls-1" d="M12.19,3.89,8.35.19a.7.7,0,0,0-.95,0L3.56,3.89a.73.73,0,0,0,0,1A.69.69,0,0,0,4,5.13a.67.67,0,0,0,.47-.2L7.87,1.69l3.38,3.24a.68.68,0,0,0,1,0A.73.73,0,0,0,12.19,3.89Z"/><path class="cls-1" d="M14.82,6.1h-3.7a.72.72,0,0,0,0,1.43h3v9.78H1.39V7.53h3a.72.72,0,0,0,0-1.43H.69A.7.7,0,0,0,0,6.82V18a.7.7,0,0,0,.69.72H14.82a.71.71,0,0,0,.7-.72V6.82A.71.71,0,0,0,14.82,6.1Z"/></svg>